<svg width="25" height="24" viewBox="0 0 25 24" fill="none" xmlns="http://www.w3.org/2000/svg">
<path d="M1 15.0584C2.06751 11.3222 5.7881 10.3988 7.92313 12C6.07696 12.9231 5.27006 14.3077 5.27006 15.5921C2.70802 16.0191 1 16.1259 1 15.0584Z" fill="#FFCF39"/>
<path d="M22.6924 15.0584C21.6249 11.3222 17.9043 10.3988 15.7693 12C17.6154 12.9231 18.4223 14.3077 18.4223 15.5921C20.9844 16.0191 22.6924 16.1259 22.6924 15.0584Z" fill="#FFCF39"/>
<circle cx="11.9025" cy="8.12079" r="2.12079" fill="#FFCF39" stroke="#17253D"/>
<circle cx="17.6291" cy="8.3327" r="1.48455" fill="#FFCF39" stroke="#17253D"/>
<circle cx="6.17694" cy="8.3327" r="1.48455" fill="#FFCF39" stroke="#17253D"/>
<path d="M4.98963 15.8137H1.73814C1.30086 15.8137 0.936452 15.3764 1.00933 14.9392C1.44662 12.9715 3.19576 11.4412 5.3093 11.4412C6.08976 11.4412 6.82077 11.639 7.46159 11.9938" stroke="#17253D" stroke-miterlimit="10" stroke-linecap="round" stroke-linejoin="round"/>
<path d="M18.7708 15.8137H21.8913C22.3285 15.8137 22.6929 15.3764 22.6201 14.9392C22.1828 12.9715 20.4336 11.4412 18.3201 11.4412C17.5085 11.4412 16.7505 11.655 16.0917 12.037" stroke="#17253D" stroke-miterlimit="10" stroke-linecap="round" stroke-linejoin="round"/>
<path d="M11.8685 12.1699C8.95325 12.1699 6.4753 14.3562 6.1109 17.1983C6.03801 17.6356 6.40242 18 6.8397 18H16.8973C17.3345 18 17.6989 17.6356 17.6261 17.1983C17.2617 14.3562 14.7837 12.1699 11.8685 12.1699Z" fill="#FFCF39" stroke="#17253D" stroke-miterlimit="10" stroke-linecap="round" stroke-linejoin="round"/>
</svg>
