<svg width="21" height="21" viewBox="0 0 21 21" fill="none" xmlns="http://www.w3.org/2000/svg">
<path d="M8.51459 9.00395L11.0195 7H15.0274L12.5225 9.00395V18.5227H8.51459V9.00395Z" fill="#FFCF39"/>
<path d="M17.6472 7.80225H0.875V16.1884H17.6472V7.80225Z" stroke="#17253D" stroke-miterlimit="10" stroke-linecap="round" stroke-linejoin="round"/>
<path d="M12.6158 9.47937H15.1316C15.1316 9.98254 15.4671 10.318 15.9702 10.318V13.6724C15.4671 13.6724 15.1316 14.0079 15.1316 14.511H12.6158" stroke="#17253D" stroke-miterlimit="10" stroke-linecap="round" stroke-linejoin="round"/>
<path d="M5.90675 9.47937H3.39092C3.39092 9.98254 3.05547 10.318 2.55231 10.318V13.6724C3.05547 13.6724 3.39092 14.0079 3.39092 14.511H5.90675" stroke="#17253D" stroke-miterlimit="10" stroke-linecap="round" stroke-linejoin="round"/>
<path d="M0.875 7.80222L3.39083 6.125H20.163V14.5111L17.6472 16.1883" stroke="#17253D" stroke-miterlimit="10" stroke-linecap="round" stroke-linejoin="round"/>
<path d="M17.6474 7.80222L20.1632 6.125" stroke="#17253D" stroke-miterlimit="10" stroke-linecap="round" stroke-linejoin="round"/>
<path d="M10.0998 6.125L7.58398 7.80222V16.1883" stroke="#17253D" stroke-miterlimit="10" stroke-linecap="round" stroke-linejoin="round"/>
<path d="M13.4542 6.125L10.9384 7.80222V16.1883" stroke="#17253D" stroke-miterlimit="10" stroke-linecap="round" stroke-linejoin="round"/>
</svg>
