<svg width="3" height="8" viewBox="0 0 3 8" fill="none" xmlns="http://www.w3.org/2000/svg">
<path d="M2.10629 1.06236C1.79388 0.719144 1.21214 0.719144 0.899729 1.06236L0.899137 1.06301C0.746137 1.23349 0.67191 1.46066 0.693753 1.68783L1.00866 4.4702C1.0269 4.62828 1.15695 4.74743 1.31792 4.74743H1.68809C1.84907 4.74743 1.97915 4.62801 1.99739 4.46993L2.31204 1.68993L2.31224 1.68783C2.33409 1.46066 2.25988 1.23349 2.10688 1.06301L2.10629 1.06236Z" fill="white"/>
<path d="M1.50283 5.83278C1.12713 5.83278 0.822571 6.13734 0.822571 6.51304C0.822571 6.88874 1.12713 7.1933 1.50283 7.1933C1.87853 7.1933 2.18309 6.88874 2.18309 6.51304C2.18309 6.13734 1.87853 5.83278 1.50283 5.83278Z" fill="white"/>
</svg>
