<svg width="12" height="12" viewBox="0 0 12 12" fill="none" xmlns="http://www.w3.org/2000/svg">
    <path fill-rule="evenodd" clip-rule="evenodd" d="M9.656 1.206a.469.469 0 0 1 .663 0l1.408 1.408a.469.469 0 0 1 0 .663L10.32 4.685a.469.469 0 1 1-.663-.663l.604-.604a4.679 4.679 0 0 0-4.497 4.69.469.469 0 0 1-.938 0 5.616 5.616 0 0 1 5.442-5.628l-.61-.611a.469.469 0 0 1 0-.663zM.131 3.416A1.41 1.41 0 0 1 1.54 2.007h4.343a.469.469 0 0 1 0 .937H1.539a.473.473 0 0 0-.47.47v6.102c0 .258.212.47.47.47h7.98c.257 0 .47-.212.47-.47V7.052a.469.469 0 1 1 .937 0v2.465a1.41 1.41 0 0 1-1.408 1.408h-7.98A1.41 1.41 0 0 1 .132 9.517V3.415z" fill="#004FC2"/>
</svg>
